<?xml version="1.0" encoding="UTF-8" standalone="no"?>
<svg
   xmlns:dc="http://purl.org/dc/elements/1.1/"
   xmlns:cc="http://creativecommons.org/ns#"
   xmlns:rdf="http://www.w3.org/1999/02/22-rdf-syntax-ns#"
   xmlns:svg="http://www.w3.org/2000/svg"
   xmlns="http://www.w3.org/2000/svg"
   viewBox="0 0 960 720"
   height="720"
   width="960"
   xml:space="preserve"
   version="1.1"
   id="svg3393"><metadata
     id="metadata3399"><rdf:RDF><cc:Work
         rdf:about=""><dc:format>image/svg+xml</dc:format><dc:type
           rdf:resource="http://purl.org/dc/dcmitype/StillImage" /><dc:title></dc:title></cc:Work></rdf:RDF></metadata><defs
     id="defs3397"><clipPath
       id="clipPath3409"
       clipPathUnits="userSpaceOnUse"><path
         id="path3411"
         d="M 0,540 720,540 720,0 0,0 0,540 Z" /></clipPath><clipPath
       id="clipPath3417"
       clipPathUnits="userSpaceOnUse"><path
         id="path3419"
         d="m 560,160 160,0 0,-160 -160,0 0,160 z" /></clipPath><clipPath
       id="clipPath3433"
       clipPathUnits="userSpaceOnUse"><path
         id="path3435"
         d="m 0,396 144,0 0,144 -144,0 0,-144 z" /></clipPath><clipPath
       id="clipPath3477"
       clipPathUnits="userSpaceOnUse"><path
         id="path3479"
         d="m 0,396 144,0 0,144 -144,0 0,-144 z" /></clipPath><clipPath
       id="clipPath3521"
       clipPathUnits="userSpaceOnUse"><path
         id="path3523"
         d="m 0,396 144,0 0,144 -144,0 0,-144 z" /></clipPath><clipPath
       id="clipPath3565"
       clipPathUnits="userSpaceOnUse"><path
         id="path3567"
         d="m 0,396 144,0 0,144 -144,0 0,-144 z" /></clipPath><clipPath
       id="clipPath3617"
       clipPathUnits="userSpaceOnUse"><path
         id="path3619"
         d="M 0,540 720,540 720,0 0,0 0,540 Z" /></clipPath><clipPath
       id="clipPath3625"
       clipPathUnits="userSpaceOnUse"><path
         id="path3627"
         d="M 3.05176e-5,540 720,540 720,0 3.05176e-5,0 l 0,540 z" /></clipPath></defs><g
     transform="matrix(1.3333333,0,0,-1.3333333,0,720)"
     id="g3401"><path
       id="path3403"
       style="fill:#f8f8f8;fill-opacity:1;fill-rule:nonzero;stroke:none"
       d="M 0,0 720,0 720,540 0,540 0,0 Z" /><g
       id="g3405"><g
         clip-path="url(#clipPath3409)"
         id="g3407"><g
           id="g3413"><g
             id="g3415" /><g
             id="g3421"><g
               style="opacity:0.39999402"
               id="g3423"
               clip-path="url(#clipPath3417)"><g
                 id="g3425"
                 transform="translate(720,129.9761)"><path
                   id="path3427"
                   style="fill:#dcdcdc;fill-opacity:1;fill-rule:nonzero;stroke:none"
                   d="m 0,0 0,30.024 -160,-160 30.024,0 L 0,0 Z" /></g></g></g></g></g></g><g
       id="g3429"><g
         clip-path="url(#clipPath3433)"
         id="g3431"><g
           transform="translate(-9.1168,416.2329)"
           id="g3437"><path
             id="path3439"
             style="fill:none;stroke:#dcdcdc;stroke-width:0.75;stroke-linecap:butt;stroke-linejoin:miter;stroke-miterlimit:10;stroke-dasharray:none;stroke-opacity:1"
             d="M 0,0 -0.003,21.276 21.275,21.275" /></g><g
           transform="translate(-5.5709,419.7788)"
           id="g3441"><path
             id="path3443"
             style="fill:none;stroke:#dcdcdc;stroke-width:0.75;stroke-linecap:butt;stroke-linejoin:miter;stroke-miterlimit:10;stroke-dasharray:none;stroke-opacity:1"
             d="m 0,0 -0.002,14.183 14.185,0" /></g><g
           transform="translate(-2.0253,423.3245)"
           id="g3445"><path
             id="path3447"
             style="fill:none;stroke:#dcdcdc;stroke-width:0.75;stroke-linecap:butt;stroke-linejoin:miter;stroke-miterlimit:10;stroke-dasharray:none;stroke-opacity:1"
             d="M 0,0 -0.001,7.092 7.091,7.091" /></g></g></g><g
       transform="translate(68.8886,494.2384)"
       id="g3449"><path
         id="path3451"
         style="fill:none;stroke:#dcdcdc;stroke-width:0.75;stroke-linecap:butt;stroke-linejoin:miter;stroke-miterlimit:10;stroke-dasharray:none;stroke-opacity:1"
         d="m 0,0 -21.275,0.002 0,-21.277" /></g><g
       transform="translate(65.3432,490.693)"
       id="g3453"><path
         id="path3455"
         style="fill:none;stroke:#dcdcdc;stroke-width:0.75;stroke-linecap:butt;stroke-linejoin:miter;stroke-miterlimit:10;stroke-dasharray:none;stroke-opacity:1"
         d="m 0,0 -14.184,0.002 10e-4,-14.185" /></g><g
       transform="translate(61.7975,487.1473)"
       id="g3457"><path
         id="path3459"
         style="fill:none;stroke:#dcdcdc;stroke-width:0.75;stroke-linecap:butt;stroke-linejoin:miter;stroke-miterlimit:10;stroke-dasharray:none;stroke-opacity:1"
         d="m 0,0 -7.091,0.001 0,-7.092" /></g><g
       transform="translate(19.2457,501.3323)"
       id="g3461"><path
         id="path3463"
         style="fill:none;stroke:#dcdcdc;stroke-width:0.75;stroke-linecap:butt;stroke-linejoin:miter;stroke-miterlimit:10;stroke-dasharray:none;stroke-opacity:1"
         d="M 0,0 21.275,0 21.274,21.274" /></g><g
       transform="translate(22.7919,504.878)"
       id="g3465"><path
         id="path3467"
         style="fill:none;stroke:#dcdcdc;stroke-width:0.75;stroke-linecap:butt;stroke-linejoin:miter;stroke-miterlimit:10;stroke-dasharray:none;stroke-opacity:1"
         d="M 0,0 14.185,0 14.183,14.184" /></g><g
       transform="translate(26.3378,508.4239)"
       id="g3469"><path
         id="path3471"
         style="fill:none;stroke:#dcdcdc;stroke-width:0.75;stroke-linecap:butt;stroke-linejoin:miter;stroke-miterlimit:10;stroke-dasharray:none;stroke-opacity:1"
         d="M 0,0 7.092,0 7.091,7.092" /></g><g
       id="g3473"><g
         clip-path="url(#clipPath3477)"
         id="g3475"><g
           transform="translate(12.156,465.8745)"
           id="g3481"><path
             id="path3483"
             style="fill:none;stroke:#dcdcdc;stroke-width:0.75;stroke-linecap:butt;stroke-linejoin:miter;stroke-miterlimit:10;stroke-dasharray:none;stroke-opacity:1"
             d="m 0,0 0.001,-21.275 -21.275,0 L -21.275,0 0,0 Z" /></g><g
           transform="translate(-5.5726,462.3285)"
           id="g3485"><path
             id="path3487"
             style="fill:none;stroke:#dcdcdc;stroke-width:0.75;stroke-linecap:butt;stroke-linejoin:miter;stroke-miterlimit:10;stroke-dasharray:none;stroke-opacity:1"
             d="m 0,0 14.183,0 0,-14.183 L 0,-14.183 0,0 Z" /></g><g
           transform="translate(-2.0276,458.7835)"
           id="g3489"><path
             id="path3491"
             style="fill:none;stroke:#dcdcdc;stroke-width:0.75;stroke-linecap:butt;stroke-linejoin:miter;stroke-miterlimit:10;stroke-dasharray:none;stroke-opacity:1"
             d="M 0,0 7.091,-0.002 7.092,-7.092 0.002,-7.091 0,0 Z" /></g></g></g><g
       transform="translate(40.5228,472.9654)"
       id="g3493"><path
         id="path3495"
         style="fill:none;stroke:#dcdcdc;stroke-width:0.75;stroke-linecap:butt;stroke-linejoin:miter;stroke-miterlimit:10;stroke-dasharray:none;stroke-opacity:1"
         d="M 0,0 -0.001,21.274 -21.276,21.275 -21.276,0 0,0 Z" /></g><g
       transform="translate(36.9766,476.5115)"
       id="g3497"><path
         id="path3499"
         style="fill:none;stroke:#dcdcdc;stroke-width:0.75;stroke-linecap:butt;stroke-linejoin:miter;stroke-miterlimit:10;stroke-dasharray:none;stroke-opacity:1"
         d="m 0,0 -0.001,14.183 -14.181,0 L -14.184,0 0,0 Z" /></g><g
       transform="translate(33.4301,480.058)"
       id="g3501"><path
         id="path3503"
         style="fill:none;stroke:#dcdcdc;stroke-width:0.75;stroke-linecap:butt;stroke-linejoin:miter;stroke-miterlimit:10;stroke-dasharray:none;stroke-opacity:1"
         d="m 0,0 0,7.09 -7.092,0.002 0,-7.093 L 0,0 Z" /></g><g
       transform="translate(40.523,465.8728)"
       id="g3505"><path
         id="path3507"
         style="fill:none;stroke:#dcdcdc;stroke-width:0.75;stroke-linecap:butt;stroke-linejoin:miter;stroke-miterlimit:10;stroke-dasharray:none;stroke-opacity:1"
         d="m 0,0 -21.276,0.003 0.001,-21.278" /></g><g
       transform="translate(36.9771,462.3269)"
       id="g3509"><path
         id="path3511"
         style="fill:none;stroke:#dcdcdc;stroke-width:0.75;stroke-linecap:butt;stroke-linejoin:miter;stroke-miterlimit:10;stroke-dasharray:none;stroke-opacity:1"
         d="m 0,0 -14.183,0.002 0,-14.185" /></g><g
       transform="translate(33.4315,458.7813)"
       id="g3513"><path
         id="path3515"
         style="fill:none;stroke:#dcdcdc;stroke-width:0.75;stroke-linecap:butt;stroke-linejoin:miter;stroke-miterlimit:10;stroke-dasharray:none;stroke-opacity:1"
         d="m 0,0 -7.092,0.001 10e-4,-7.092" /></g><g
       id="g3517"><g
         clip-path="url(#clipPath3521)"
         id="g3519"><g
           transform="translate(-9.1201,472.966)"
           id="g3525"><path
             id="path3527"
             style="fill:none;stroke:#dcdcdc;stroke-width:0.75;stroke-linecap:butt;stroke-linejoin:miter;stroke-miterlimit:10;stroke-dasharray:none;stroke-opacity:1"
             d="M 0,0 21.276,0 21.275,21.275" /></g><g
           transform="translate(-5.574,476.5121)"
           id="g3529"><path
             id="path3531"
             style="fill:none;stroke:#dcdcdc;stroke-width:0.75;stroke-linecap:butt;stroke-linejoin:miter;stroke-miterlimit:10;stroke-dasharray:none;stroke-opacity:1"
             d="M 0,0 14.184,-0.001 14.183,14.183" /></g><g
           transform="translate(-2.0285,480.058)"
           id="g3533"><path
             id="path3535"
             style="fill:none;stroke:#dcdcdc;stroke-width:0.75;stroke-linecap:butt;stroke-linejoin:miter;stroke-miterlimit:10;stroke-dasharray:none;stroke-opacity:1"
             d="M 0,0 7.093,0 7.092,7.092" /></g></g></g><g
       transform="translate(47.6141,522.6075)"
       id="g3537"><path
         id="path3539"
         style="fill:none;stroke:#dcdcdc;stroke-width:0.75;stroke-linecap:butt;stroke-linejoin:miter;stroke-miterlimit:10;stroke-dasharray:none;stroke-opacity:1"
         d="m 0,0 21.275,0 0,-21.276 -21.276,0 0,21.275 L 0,0 Z" /></g><g
       transform="translate(51.16,519.0611)"
       id="g3541"><path
         id="path3543"
         style="fill:none;stroke:#dcdcdc;stroke-width:0.75;stroke-linecap:butt;stroke-linejoin:miter;stroke-miterlimit:10;stroke-dasharray:none;stroke-opacity:1"
         d="m 0,0 14.183,0.001 0,-14.184 L -0.001,-14.184 0,0 Z" /></g><g
       transform="translate(54.705,515.5162)"
       id="g3545"><path
         id="path3547"
         style="fill:none;stroke:#dcdcdc;stroke-width:0.75;stroke-linecap:butt;stroke-linejoin:miter;stroke-miterlimit:10;stroke-dasharray:none;stroke-opacity:1"
         d="M 0,0 7.094,0 7.092,-7.092 -0.001,-7.094 0,0 Z" /></g><g
       transform="translate(75.9823,501.3321)"
       id="g3549"><path
         id="path3551"
         style="fill:none;stroke:#dcdcdc;stroke-width:0.75;stroke-linecap:butt;stroke-linejoin:miter;stroke-miterlimit:10;stroke-dasharray:none;stroke-opacity:1"
         d="m 0,0 -0.002,21.275 21.277,0" /></g><g
       transform="translate(79.5277,504.8775)"
       id="g3553"><path
         id="path3555"
         style="fill:none;stroke:#dcdcdc;stroke-width:0.75;stroke-linecap:butt;stroke-linejoin:miter;stroke-miterlimit:10;stroke-dasharray:none;stroke-opacity:1"
         d="M 0,0 -0.002,14.184 14.183,14.183" /></g><g
       transform="translate(83.0734,508.4232)"
       id="g3557"><path
         id="path3559"
         style="fill:none;stroke:#dcdcdc;stroke-width:0.75;stroke-linecap:butt;stroke-linejoin:miter;stroke-miterlimit:10;stroke-dasharray:none;stroke-opacity:1"
         d="m 0,0 -0.001,7.091 7.092,0" /></g><g
       id="g3561"><g
         clip-path="url(#clipPath3565)"
         id="g3563"><g
           transform="translate(68.8884,550.975)"
           id="g3569"><path
             id="path3571"
             style="fill:none;stroke:#dcdcdc;stroke-width:0.75;stroke-linecap:butt;stroke-linejoin:miter;stroke-miterlimit:10;stroke-dasharray:none;stroke-opacity:1"
             d="m 0,0 0,-21.275 -21.274,10e-4" /></g><g
           transform="translate(65.3427,547.4288)"
           id="g3573"><path
             id="path3575"
             style="fill:none;stroke:#dcdcdc;stroke-width:0.75;stroke-linecap:butt;stroke-linejoin:miter;stroke-miterlimit:10;stroke-dasharray:none;stroke-opacity:1"
             d="m 0,0 0,-14.185 -14.184,0.002" /></g><g
           transform="translate(61.7968,543.8829)"
           id="g3577"><path
             id="path3579"
             style="fill:none;stroke:#dcdcdc;stroke-width:0.75;stroke-linecap:butt;stroke-linejoin:miter;stroke-miterlimit:10;stroke-dasharray:none;stroke-opacity:1"
             d="m 0,0 0,-7.092 -7.092,10e-4" /></g><g
           transform="translate(-69.3974,412.6891)"
           id="g3581"><path
             id="path3583"
             style="fill:none;stroke:#dcdcdc;stroke-width:0.75;stroke-linecap:butt;stroke-linejoin:miter;stroke-miterlimit:10;stroke-dasharray:none;stroke-opacity:1"
             d="m 0,0 56.734,-0.002 -0.002,56.734 56.735,-0.002 -0.002,56.735 56.734,-0.003 -0.002,56.735 56.734,-0.002 -0.002,56.735 56.735,-0.003 -0.003,56.735 56.735,-0.003 -0.002,56.735 56.735,-0.002 -0.003,56.734 56.735,-0.002 -0.003,56.735" /></g><g
           transform="translate(-41.0292,384.3205)"
           id="g3585"><path
             id="path3587"
             style="fill:none;stroke:#dcdcdc;stroke-width:0.75;stroke-linecap:butt;stroke-linejoin:miter;stroke-miterlimit:10;stroke-dasharray:none;stroke-opacity:1"
             d="m 0,0 -0.002,56.734 56.735,-0.001 -0.003,56.734 56.735,-0.002 -0.003,56.734 56.735,-0.001 -0.002,56.734 56.734,-0.003 -0.002,56.735 56.735,-0.002 -0.002,56.735 56.734,-0.003 -0.002,56.735 56.734,-0.003 -0.002,56.735 56.735,-0.002" /></g><g
           transform="translate(97.2554,529.698)"
           id="g3589"><path
             id="path3591"
             style="fill:none;stroke:#dcdcdc;stroke-width:0.75;stroke-linecap:butt;stroke-linejoin:miter;stroke-miterlimit:10;stroke-dasharray:none;stroke-opacity:1"
             d="M 0,0 -21.274,0.001 -21.275,21.276 0,21.276 0,0 Z" /></g><g
           transform="translate(93.7092,533.2441)"
           id="g3593"><path
             id="path3595"
             style="fill:none;stroke:#dcdcdc;stroke-width:0.75;stroke-linecap:butt;stroke-linejoin:miter;stroke-miterlimit:10;stroke-dasharray:none;stroke-opacity:1"
             d="m 0,0 -14.183,0.001 0,14.181 L 0,14.184 0,0 Z" /></g><g
           transform="translate(90.1627,536.7906)"
           id="g3597"><path
             id="path3599"
             style="fill:none;stroke:#dcdcdc;stroke-width:0.75;stroke-linecap:butt;stroke-linejoin:miter;stroke-miterlimit:10;stroke-dasharray:none;stroke-opacity:1"
             d="m 0,0 -7.09,0 -0.002,7.092 7.093,0 L 0,0 Z" /></g><g
           transform="translate(104.3479,529.6978)"
           id="g3601"><path
             id="path3603"
             style="fill:none;stroke:#dcdcdc;stroke-width:0.75;stroke-linecap:butt;stroke-linejoin:miter;stroke-miterlimit:10;stroke-dasharray:none;stroke-opacity:1"
             d="M 0,0 -0.003,21.276 21.275,21.275" /></g><g
           transform="translate(107.8938,533.2437)"
           id="g3605"><path
             id="path3607"
             style="fill:none;stroke:#dcdcdc;stroke-width:0.75;stroke-linecap:butt;stroke-linejoin:miter;stroke-miterlimit:10;stroke-dasharray:none;stroke-opacity:1"
             d="m 0,0 -0.002,14.183 14.185,0" /></g><g
           transform="translate(111.4395,536.7893)"
           id="g3609"><path
             id="path3611"
             style="fill:none;stroke:#dcdcdc;stroke-width:0.75;stroke-linecap:butt;stroke-linejoin:miter;stroke-miterlimit:10;stroke-dasharray:none;stroke-opacity:1"
             d="M 0,0 -0.001,7.092 7.091,7.091" /></g></g></g><g
       id="g3613"><g
         clip-path="url(#clipPath3617)"
         id="g3615"><g
           id="g3621"><g
             id="g3623" /><g
             id="g3629"><g
               style="opacity:0.25"
               id="g3631"
               clip-path="url(#clipPath3625)"><g
                 id="g3633"
                 transform="translate(0,425.3499)"><path
                   id="path3635"
                   style="fill:#dcdcdc;fill-opacity:1;fill-rule:nonzero;stroke:none"
                   d="m 0,0 0,-425.347 0,-0.003 560,0 160,160 0,380 -605.35,0 L 0,0 Z" /></g></g></g></g></g></g></g></svg>
