<?xml version="1.0"?>
<!--?xml version="1.0" encoding="UTF-8" standalone="no"?-->
<svg xmlns:dc="http://purl.org/dc/elements/1.1/" xmlns:cc="http://creativecommons.org/ns#" xmlns:rdf="http://www.w3.org/1999/02/22-rdf-syntax-ns#" xmlns:svg="http://www.w3.org/2000/svg" xmlns="http://www.w3.org/2000/svg" version="1.1" id="svg8021" x="0px" y="0px" viewBox="0 0 800 800" enable-background="new 0 0 500 500" xml:space="preserve" width="800" height="800"><metadata id="metadata4149"><rdf:rdf><cc:work rdf:about=""><dc:format>image/svg+xml</dc:format><dc:type rdf:resource="http://purl.org/dc/dcmitype/StillImage"></dc:type><dc:title></dc:title></cc:work></rdf:rdf></metadata><defs id="defs4147"></defs><rect style="opacity:1;fill:#f3f3f3;fill-opacity:1;stroke:none;stroke-width:1.0001;stroke-linecap:round;stroke-linejoin:round;stroke-miterlimit:4;stroke-dasharray:none;stroke-opacity:1" id="rect4151" width="837.5" height="833.2" x="-12.82" y="-11.63"></rect><path style="opacity:1;fill:#f9f9f9;fill-opacity:0.747;stroke:none;stroke-width:0.9999;stroke-linecap:round;stroke-linejoin:round;stroke-miterlimit:4;stroke-dasharray:none;stroke-opacity:1" d="m -12.82,-11.63 827.72,0 -827.72,823.43 z" id="path4158"></path><g style="opacity:1" id="g4250"><path style="fill:none;stroke:#e0e0e0;stroke-width:0.7559;stroke-linecap:square;stroke-miterlimit:10;stroke-dasharray:none;stroke-opacity:1" d="m 485.4,795.9 7,0 0,-7 m -10.4,10.4 13.7,0 0,-13.9 m -17.1,17.4 20.6,0 0,-20.9 m 13.7,7 0,7 6.9,0 m -10.3,-10.6 0,14 13.7,0 m -17,-17.4 0,20.9 20.5,0 m -23.9,1.1 0,-25.5 m 10.1,-10.3 6.9,0 0,-7 m -10.3,10.5 13.7,0 0,-13.9 m -17,17.4 20.5,0 0,-20.9 m 20.6,34.7 -6.9,0 0,7 m 10.4,-10.6 -13.8,0 0,14 m 17.3,-17.4 -20.7,0 0,20.9 m 6.8,-41.7 0,7 6.9,0 m -10.3,-10.4 0,13.9 13.8,0 m -17.2,-17.4 0,20.9 20.5,0 m -34.2,20.8 0,-7 -6.9,0 m 10.2,10.4 0,-13.9 -13.7,0 m 17.2,17.4 0,-20.9 -20.5,0 m 24,22 0,-53.2 m 27.5,27.7 -54.9,0 m 37.6,-37.7 6.9,0 0,-6.6 m -10.3,9.7 13.8,0 0,-13.3 m -17.2,16.7 20.7,0 0,-20 m 20.6,33.9 -6.7,0 0,7 m 10,-10.4 -13.8,0 0,13.9 m 17.3,-17.4 -20.6,0 0,20.9 m 6.8,-41 0,6.6 6.9,0 m -10.4,-10.2 0,13.3 13.8,0 m -17.1,-16.6 0,20.1 20.6,0 m -34.3,20.8 0,-7 -6.9,0 m 10.3,10.5 0,-13.9 -13.8,0 m 17.3,17.4 0,-20.9 -20.7,0 m 24.1,24.2 0,-54.8 m 27.5,27.1 -55,0 m 37.9,-37.6 6.7,0 0,-6.7 m -10.1,10.2 13.7,0 0,-13.8 m -17.3,17.4 20.6,0 0,-20.6 m 20.7,34.2 -6.8,0 0,6.8 m 10.2,-10.3 -13.7,0 0,13.4 m 17.2,-16.8 -20.6,0 0,20.3 m 6.9,-40.8 0,6.7 6.8,0 m -10.3,-10.3 0,13.8 13.7,0 m -17.3,-17.1 0,20.4 20.7,0 m -34.3,20.7 0,-6.9 -6.7,0 m 10.2,10.1 0,-13.5 -13.7,0 m 17,16.9 0,-20 -20.5,0 m 24.1,23.5 0,-54.8 m 27.5,27.7 -55.1,0 m 37.9,-37.9 6.8,0 0,-6.5 m -10.3,9.9 13.7,0 0,-13.8 m -17.3,17.4 20.7,0 0,-20.5 m 20.6,34.2 -6.6,0 0,6.7 m 10.1,-10.3 -13.6,0 0,13.8 m 17.1,-17.1 -20.5,0 0,20.4 m 6.9,-41.1 0,6.9 6.6,0 m -10.1,-10.4 0,13.8 13.6,0 m -30.9,24 0,-6.7 -6.8,0 m 10.2,10.2 0,-13.8 -13.7,0 m 17.2,17.4 0,-20.6 -20.6,0 m 68.7,-20.8 -6.9,0 0,6.9 m 10.4,-10.4 -13.8,0 0,13.8 m 17.2,-17.2 -20.6,0 0,20.6 m 6.8,-41.1 0,6.8 6.9,0 m -10.3,-10.4 0,13.9 13.8,0 m -17.3,-17.3 0,20.5 20.7,0 m -34.5,20.8 0,-6.9 -6.6,0 m 10.1,10.3 0,-13.8 -13.6,0 m 17.1,17.4 0,-20.5 -20.6,0 0,20.5 20.5,0 m 3.6,3.2 0,-54.9 m 27.5,27.6 -55,0 m 38.2,-38.1 6.7,0 0,-6.9 m -10.3,10.3 13.7,0 0,-13.8 m -17.2,17.2 20.6,0 0,-20.5 m 20.7,34.2 -6.8,0 0,6.8 m 10.2,-10.2 -13.7,0 0,13.8 m 17,-17.1 -20.6,0 0,20.5 m 7,-41.2 0,6.7 6.8,0 m -10.2,-10 0,13.8 13.7,0 m -17.2,-17.3 0,20.5 20.6,0 m -34.3,20.7 0,-6.7 -6.7,0 m 10.1,10.1 0,-13.8 -13.7,0 m 17.2,17.2 0,-20.5 -20.5,0 m 23.9,24 0,-55 m 27.5,27.6 -54.9,0 m 37.7,-38 6.8,0 0,-6.6 m -10.2,10.2 13.7,0 0,-13.7 m -17.2,16.9 20.6,0 0,-20.5 m 20.6,34.4 -6.6,0 0,6.7 m 10.1,-10 -13.7,0 0,13.8 m 17,-17.3 -20.5,0 0,20.5 m 6.8,-41.2 0,6.8 6.8,0 m -10.1,-10.1 0,13.7 13.7,0 m -17.2,-17.3 0,20.6 20.5,0 m -34.2,20.7 0,-6.9 -6.8,0 m 10.2,10.3 0,-13.8 -13.7,0 m 17,17.2 0,-20.5 -20.6,0 m 24.2,24.1 0,-55.2 m 27.5,27.6 -55,0 m 38,-37.7 6.6,0 0,-6.8 m -10.2,10.1 13.7,0 0,-13.8 m -17.2,17 20.5,0 0,-20.3 m 20.7,34.3 -6.8,0 0,6.8 m 10.4,-10.3 -13.8,0 0,13.8 m 17.1,-17.2 -20.7,0 0,20.6 m 7,-41.2 0,6.7 6.8,0 m -10.2,-10 0,13.8 13.8,0 m -17.3,-17.3 0,20.3 20.6,0 m -34.4,20.8 0,-6.6 -6.6,0 m 10.1,10.1 0,-13.8 -13.7,0 m 17.2,17.1 0,-20.5 -20.5,0 m 23.9,24.1 0,-55 m 27.5,27.4 -55,0 m 38,-37.9 6.8,0 0,-6.9 m -10.1,10.4 13.7,0 0,-13.9 m -17.1,17.1 20.5,0 0,-20.4 m 20.7,34.2 -6.8,0 0,6.8 m 10.2,-10.2 -13.9,0 0,13.9 m 17.3,-17.3 -20.7,0 0,20.6 m 7,-41.2 0,6.9 6.8,0 m -10.4,-10.4 0,13.9 13.9,0 m -17.2,-17.2 0,20.4 20.6,0 m -34.3,20.7 0,-6.8 -6.8,0 m 10.1,10.3 0,-13.9 -13.8,0 m 17.3,17.2 0,-20.6 -20.5,0 m 24,24 0,-54.9 m 27.4,27.5 -54.9,0 m 37.8,-37.8 6.8,0 0,-6.8 m -10.4,10.3 13.9,0 0,-13.8 m -17.2,17.2 20.6,0 0,-20.4 m 20.7,34.2 -6.8,0 0,6.9 m 10,-10.4 -13.8,0 0,13.9 m 17.3,-17.2 -20.5,0 0,20.4 m 6.8,-41.1 0,6.8 6.8,0 m -10.3,-10.3 0,13.8 13.8,0 m -17.1,-17.1 0,20.5 20.5,0 m -34.2,20.7 0,-6.9 -6.8,0 m 10.2,10.4 0,-13.9 -13.9,0 m 17.3,17.1 0,-20.4 -20.7,0 m 24.1,23.9 0,-55 m 27.5,27.5 -54.9,0 m 37.7,-37.8 6.8,0 0,-6.7 m -10.1,10.2 13.7,0 0,-13.8 m -17.1,17.1 20.4,0 0,-20.4 m -6.7,41.1 0,-6.8 -6.8,0 m 10.2,10.3 0,-13.8 -13.7,0 m 17,17.1 0,-20.4 -20.4,0 m 23.9,23.9 0,-55 m 0,27.5 -27.5,0 m -165.4,220.6 0,-55 m 27.4,27.4 -55,0 m 38,-37.8 6.6,0 0,-6.8 m -10.1,10.3 13.6,0 0,-13.9 m -17.1,17.4 20.5,0 0,-20.7" stroke-miterlimit="10" id="t-pattern"></path></g></svg>
