<?xml version="1.0" encoding="UTF-8" standalone="no"?>
<!-- Generator: Adobe Illustrator 19.2.0, SVG Export Plug-In . SVG Version: 6.00 Build 0)  -->

<svg
   xmlns:dc="http://purl.org/dc/elements/1.1/"
   xmlns:cc="http://creativecommons.org/ns#"
   xmlns:rdf="http://www.w3.org/1999/02/22-rdf-syntax-ns#"
   xmlns:svg="http://www.w3.org/2000/svg"
   xmlns="http://www.w3.org/2000/svg"
   xmlns:sodipodi="http://sodipodi.sourceforge.net/DTD/sodipodi-0.dtd"
   xmlns:inkscape="http://www.inkscape.org/namespaces/inkscape"
   version="1.1"
   id="Layer_1"
   x="0px"
   y="0px"
   viewBox="0 0 574.45001 590.84998"
   xml:space="preserve"
   sodipodi:docname="Band_Aid_Flat_Icon_Vector.svg"
   width="574.45001"
   height="590.84998"
   inkscape:version="0.92.3 (2405546, 2018-03-11)"><metadata
   id="metadata4802"><rdf:RDF><cc:Work
       rdf:about=""><dc:format>image/svg+xml</dc:format><dc:type
         rdf:resource="http://purl.org/dc/dcmitype/StillImage" /><dc:title></dc:title></cc:Work></rdf:RDF></metadata><defs
   id="defs4800" /><sodipodi:namedview
   pagecolor="#ffffff"
   bordercolor="#666666"
   borderopacity="1"
   objecttolerance="10"
   gridtolerance="10"
   guidetolerance="10"
   inkscape:pageopacity="0"
   inkscape:pageshadow="2"
   inkscape:window-width="1920"
   inkscape:window-height="1030"
   id="namedview4798"
   showgrid="false"
   fit-margin-top="0"
   fit-margin-left="0"
   fit-margin-right="0"
   fit-margin-bottom="0"
   inkscape:zoom="0.83854167"
   inkscape:cx="287.275"
   inkscape:cy="295.475"
   inkscape:window-x="0"
   inkscape:window-y="0"
   inkscape:window-maximized="1"
   inkscape:current-layer="Layer_1" />
<style
   type="text/css"
   id="style4696">
	.st0{fill:#D8B77D;}
	.st1{fill:#EFCD8B;}
	.st2{fill:#FFEEC5;}
	.st3{fill:#E0BF77;}
	.st4{fill:#EACB86;}
	.st5{fill:#FFE094;}
</style>
<g
   id="Layer_1_1_"
   transform="translate(-192.725,-184.625)">
	<g
   id="g4794">
		<g
   id="g4744">
			<path
   class="st0"
   d="m 256.7,734.8 -27.9,-27.9 c -31.7,-31.7 -31.7,-83.2 0,-114.9 L 600.6,220 c 31.7,-31.7 83.2,-31.7 114.9,0 l 27.9,27.9 c 31.7,31.7 31.7,83.2 0,114.9 l -371.8,372 c -31.7,31.8 -83.2,31.8 -114.9,0 z"
   id="path4698"
   inkscape:connector-curvature="0"
   style="fill:#d8b77d" />
			<path
   class="st1"
   d="M 252.6,723.1 224.7,695.2 C 193,663.5 193,612 224.7,580.3 L 596.6,208.4 c 31.7,-31.7 83.2,-31.7 114.9,0 l 27.9,27.9 c 31.7,31.7 31.7,83.2 0,114.9 L 367.5,723.1 c -31.7,31.7 -83.2,31.7 -114.9,0 z"
   id="path4700"
   inkscape:connector-curvature="0"
   style="fill:#efcd8b" />
			<path
   class="st2"
   d="m 458.9,579 -90.1,-90.1 c -2.2,-2.2 -2.2,-5.9 0,-8.1 L 489.5,360 c 2.2,-2.2 5.9,-2.2 8.1,0 l 90.1,90.1 c 2.2,2.2 2.2,5.9 0,8.1 L 467,579 c -2.3,2.2 -5.9,2.2 -8.1,0 z"
   id="path4702"
   inkscape:connector-curvature="0"
   style="fill:#ffeec5" />
			<g
   id="g4722">
				
					<circle
   transform="matrix(0.7071,-0.7071,0.7071,0.7071,-269.1296,396.6077)"
   class="st3"
   cx="344.20001"
   cy="523.20001"
   id="ellipse4704"
   r="9.6999998"
   style="fill:#e0bf77" />
				
					<circle
   transform="matrix(0.7071,-0.7071,0.7071,0.7071,-286.0897,437.5073)"
   class="st3"
   cx="385.10001"
   cy="564.09998"
   id="ellipse4706"
   r="9.6999998"
   style="fill:#e0bf77" />
				
					<circle
   transform="matrix(0.7071,-0.7071,0.7071,0.7071,-303.0498,478.407)"
   class="st3"
   cx="426"
   cy="605"
   id="ellipse4708"
   r="9.6999998"
   style="fill:#e0bf77" />
				
					<circle
   transform="matrix(0.7071,-0.7071,0.7071,0.7071,-301.9753,382.1517)"
   class="st3"
   cx="310.29999"
   cy="555.59998"
   id="ellipse4710"
   r="9.6999998"
   style="fill:#e0bf77" />
				
					<circle
   transform="matrix(0.7071,-0.7071,0.7071,0.7071,-318.9355,423.0514)"
   class="st3"
   cx="351.20001"
   cy="596.5"
   id="ellipse4712"
   r="9.6999998"
   style="fill:#e0bf77" />
				
					<circle
   transform="matrix(0.7071,-0.7071,0.7071,0.7071,-335.8955,463.9509)"
   class="st3"
   cx="392.10001"
   cy="637.40002"
   id="ellipse4714"
   r="9.6999998"
   style="fill:#e0bf77" />
				
					<circle
   transform="matrix(0.7071,-0.7071,0.7071,0.7071,-334.8212,367.6957)"
   class="st3"
   cx="276.39999"
   cy="588"
   id="ellipse4716"
   r="9.6999998"
   style="fill:#e0bf77" />
				
					<circle
   transform="matrix(0.7071,-0.7071,0.7071,0.7071,-351.7105,408.6246)"
   class="st3"
   cx="317.39999"
   cy="628.90002"
   id="ellipse4718"
   r="9.6999998"
   style="fill:#e0bf77" />
				
					<circle
   transform="matrix(0.7071,-0.7071,0.7071,0.7071,-368.6706,449.5242)"
   class="st3"
   cx="358.29999"
   cy="669.79999"
   id="ellipse4720"
   r="9.6999998"
   style="fill:#e0bf77" />
			</g>
			<g
   id="g4742">
				
					<circle
   transform="matrix(0.7071,-0.7071,0.7071,0.7071,-11.3321,503.4024)"
   class="st3"
   cx="602"
   cy="265.39999"
   id="ellipse4724"
   r="9.6999998"
   style="fill:#e0bf77" />
				
					<circle
   transform="matrix(0.7071,-0.7071,0.7071,0.7071,-28.2922,544.3019)"
   class="st3"
   cx="642.90002"
   cy="306.29999"
   id="ellipse4726"
   r="9.6999998"
   style="fill:#e0bf77" />
				
					<circle
   transform="matrix(0.7071,-0.7071,0.7071,0.7071,-45.2523,585.2016)"
   class="st3"
   cx="683.79999"
   cy="347.20001"
   id="ellipse4728"
   r="9.6999998"
   style="fill:#e0bf77" />
				
					<circle
   transform="matrix(0.7071,-0.7071,0.7071,0.7071,-44.1779,488.9464)"
   class="st3"
   cx="568.09998"
   cy="297.79999"
   id="ellipse4730"
   r="9.6999998"
   style="fill:#e0bf77" />
				
					<circle
   transform="matrix(0.7071,-0.7071,0.7071,0.7071,-61.1379,529.846)"
   class="st3"
   cx="609"
   cy="338.70001"
   id="ellipse4732"
   r="9.6999998"
   style="fill:#e0bf77" />
				
					<circle
   transform="matrix(0.7071,-0.7071,0.7071,0.7071,-78.0272,570.7749)"
   class="st3"
   cx="650"
   cy="379.60001"
   id="ellipse4734"
   r="9.6999998"
   style="fill:#e0bf77" />
				
					<circle
   transform="matrix(0.7071,-0.7071,0.7071,0.7071,-76.9236,474.449)"
   class="st3"
   cx="534.20001"
   cy="330.10001"
   id="ellipse4736"
   r="9.6999998"
   style="fill:#e0bf77" />
				
					<circle
   transform="matrix(0.7071,-0.7071,0.7071,0.7071,-93.913,515.4193)"
   class="st3"
   cx="575.20001"
   cy="371.10001"
   id="ellipse4738"
   r="9.6999998"
   style="fill:#e0bf77" />
				
					<circle
   transform="matrix(0.7071,-0.7071,0.7071,0.7071,-110.8731,556.3189)"
   class="st3"
   cx="616.09998"
   cy="412"
   id="ellipse4740"
   r="9.6999998"
   style="fill:#e0bf77" />
			</g>
		</g>
		<g
   id="g4792">
			<path
   class="st4"
   d="m 731.3,723.8 -27.9,27.9 c -31.7,31.7 -83.2,31.7 -114.9,0 l -372,-371.9 c -31.7,-31.7 -31.7,-83.2 0,-114.9 L 244.4,237 c 31.7,-31.7 83.2,-31.7 114.9,0 l 371.9,371.9 c 31.8,31.7 31.8,83.1 0.1,114.9 z"
   id="path4746"
   inkscape:connector-curvature="0"
   style="fill:#eacb86" />
			<path
   class="st5"
   d="m 731.3,707.4 -27.9,27.9 c -31.7,31.7 -83.2,31.7 -114.9,0 l -372,-371.9 c -31.7,-31.7 -31.7,-83.2 0,-114.9 l 27.9,-27.9 c 31.7,-31.7 83.2,-31.7 114.9,0 l 371.9,371.9 c 31.8,31.7 31.8,83.2 0.1,114.9 z"
   id="path4748"
   inkscape:connector-curvature="0"
   style="fill:#ffe094" />
			<path
   class="st2"
   d="M 587.1,501.1 497,591.2 c -2.2,2.2 -5.9,2.2 -8.1,0 L 368.2,470.5 c -2.2,-2.2 -2.2,-5.9 0,-8.1 l 90.1,-90.1 c 2.2,-2.2 5.9,-2.2 8.1,0 L 587.1,493 c 2.3,2.3 2.3,5.9 0,8.1 z"
   id="path4750"
   inkscape:connector-curvature="0"
   style="fill:#ffeec5" />
			<g
   id="g4770">
				
					<circle
   transform="matrix(0.7071,-0.7071,0.7071,0.7071,-279.8039,556.0923)"
   class="st3"
   cx="531.40002"
   cy="615.79999"
   id="ellipse4752"
   r="9.6999998"
   style="fill:#e0bf77" />
				
					<circle
   transform="matrix(0.7071,-0.7071,0.7071,0.7071,-238.9044,573.0525)"
   class="st3"
   cx="572.29999"
   cy="574.90002"
   id="ellipse4754"
   r="9.6999998"
   style="fill:#e0bf77" />
				
					<circle
   transform="matrix(0.7071,-0.7071,0.7071,0.7071,-198.0047,590.0126)"
   class="st3"
   cx="613.20001"
   cy="534"
   id="ellipse4756"
   r="9.6999998"
   style="fill:#e0bf77" />
				
					<circle
   transform="matrix(0.7071,-0.7071,0.7071,0.7071,-294.26,588.9381)"
   class="st3"
   cx="563.79999"
   cy="649.70001"
   id="ellipse4758"
   r="9.6999998"
   style="fill:#e0bf77" />
				
					<circle
   transform="matrix(0.7071,-0.7071,0.7071,0.7071,-253.3604,605.8982)"
   class="st3"
   cx="604.70001"
   cy="608.79999"
   id="ellipse4760"
   r="9.6999998"
   style="fill:#e0bf77" />
				
					<circle
   transform="matrix(0.7071,-0.7071,0.7071,0.7071,-212.4608,622.8583)"
   class="st3"
   cx="645.59998"
   cy="567.90002"
   id="ellipse4762"
   r="9.6999998"
   style="fill:#e0bf77" />
				
					<circle
   transform="matrix(0.7071,-0.7071,0.7071,0.7071,-308.7867,621.7546)"
   class="st3"
   cx="596.09998"
   cy="683.59998"
   id="ellipse4764"
   r="9.6999998"
   style="fill:#e0bf77" />
				
					<circle
   transform="matrix(0.7071,-0.7071,0.7071,0.7071,-267.7871,638.6733)"
   class="st3"
   cx="637.09998"
   cy="642.59998"
   id="ellipse4766"
   r="9.6999998"
   style="fill:#e0bf77" />
				
					<circle
   transform="matrix(0.7071,-0.7071,0.7071,0.7071,-226.8875,655.6334)"
   class="st3"
   cx="678"
   cy="601.70001"
   id="ellipse4768"
   r="9.6999998"
   style="fill:#e0bf77" />
			</g>
			<g
   id="g4790">
				
					<circle
   transform="matrix(0.7071,-0.7071,0.7071,0.7071,-173.0093,298.2948)"
   class="st3"
   cx="273.60001"
   cy="358"
   id="ellipse4772"
   r="9.6999998"
   style="fill:#e0bf77" />
				
					<circle
   transform="matrix(0.7071,-0.7071,0.7071,0.7071,-132.1098,315.255)"
   class="st3"
   cx="314.5"
   cy="317.10001"
   id="ellipse4774"
   r="9.6999998"
   style="fill:#e0bf77" />
				
					<circle
   transform="matrix(0.7071,-0.7071,0.7071,0.7071,-91.2101,332.215)"
   class="st3"
   cx="355.39999"
   cy="276.20001"
   id="ellipse4776"
   r="9.6999998"
   style="fill:#e0bf77" />
				
					<circle
   transform="matrix(0.7071,-0.7071,0.7071,0.7071,-187.4653,331.1407)"
   class="st3"
   cx="306"
   cy="391.89999"
   id="ellipse4778"
   r="9.6999998"
   style="fill:#e0bf77" />
				
					<circle
   transform="matrix(0.7071,-0.7071,0.7071,0.7071,-146.5657,348.1007)"
   class="st3"
   cx="346.89999"
   cy="351"
   id="ellipse4780"
   r="9.6999998"
   style="fill:#e0bf77" />
				
					<circle
   transform="matrix(0.7071,-0.7071,0.7071,0.7071,-105.6368,364.9901)"
   class="st3"
   cx="387.79999"
   cy="310"
   id="ellipse4782"
   r="9.6999998"
   style="fill:#e0bf77" />
				
					<circle
   transform="matrix(0.7071,-0.7071,0.7071,0.7071,-201.9627,363.8864)"
   class="st3"
   cx="338.29999"
   cy="425.70001"
   id="ellipse4784"
   r="9.6999998"
   style="fill:#e0bf77" />
				
					<circle
   transform="matrix(0.7071,-0.7071,0.7071,0.7071,-160.9925,380.8758)"
   class="st3"
   cx="379.29999"
   cy="384.79999"
   id="ellipse4786"
   r="9.6999998"
   style="fill:#e0bf77" />
				
					<circle
   transform="matrix(0.7071,-0.7071,0.7071,0.7071,-120.0928,397.8359)"
   class="st3"
   cx="420.20001"
   cy="343.89999"
   id="ellipse4788"
   r="9.6999998"
   style="fill:#e0bf77" />
			</g>
		</g>
	</g>
</g>
</svg>