<?xml version="1.0" encoding="UTF-8" standalone="no"?>
<svg
   xmlns:dc="http://purl.org/dc/elements/1.1/"
   xmlns:cc="http://creativecommons.org/ns#"
   xmlns:rdf="http://www.w3.org/1999/02/22-rdf-syntax-ns#"
   xmlns:svg="http://www.w3.org/2000/svg"
   xmlns="http://www.w3.org/2000/svg"
   xmlns:sodipodi="http://sodipodi.sourceforge.net/DTD/sodipodi-0.dtd"
   xmlns:inkscape="http://www.inkscape.org/namespaces/inkscape"
   viewBox="0 0 960 720"
   height="720"
   width="960"
   xml:space="preserve"
   version="1.1"
   id="svg3393"
   inkscape:version="0.91 r13725"
   sodipodi:docname="whitebackground.svg"><sodipodi:namedview
     pagecolor="#ffffff"
     bordercolor="#666666"
     borderopacity="1"
     objecttolerance="10"
     gridtolerance="10"
     guidetolerance="10"
     inkscape:pageopacity="0"
     inkscape:pageshadow="2"
     inkscape:window-width="1920"
     inkscape:window-height="1029"
     id="namedview123"
     showgrid="false"
     showborder="true"
     inkscape:zoom="0.92709556"
     inkscape:cx="486.10169"
     inkscape:cy="288.28247"
     inkscape:window-x="0"
     inkscape:window-y="864"
     inkscape:window-maximized="1"
     inkscape:current-layer="svg3393" /><metadata
     id="metadata3399"><rdf:RDF><cc:Work
         rdf:about=""><dc:format>image/svg+xml</dc:format><dc:type
           rdf:resource="http://purl.org/dc/dcmitype/StillImage" /><dc:title></dc:title></cc:Work></rdf:RDF></metadata><defs
     id="defs3397"><clipPath
       id="clipPath3409"
       clipPathUnits="userSpaceOnUse"><path
         id="path3411"
         d="M 0,540 720,540 720,0 0,0 0,540 Z" /></clipPath><clipPath
       id="clipPath3417"
       clipPathUnits="userSpaceOnUse"><path
         id="path3419"
         d="m 560,160 160,0 0,-160 -160,0 0,160 z" /></clipPath><clipPath
       id="clipPath3433"
       clipPathUnits="userSpaceOnUse"><path
         id="path3435"
         d="m 0,396 144,0 0,144 -144,0 0,-144 z" /></clipPath><clipPath
       id="clipPath3477"
       clipPathUnits="userSpaceOnUse"><path
         id="path3479"
         d="m 0,396 144,0 0,144 -144,0 0,-144 z" /></clipPath><clipPath
       id="clipPath3521"
       clipPathUnits="userSpaceOnUse"><path
         id="path3523"
         d="m 0,396 144,0 0,144 -144,0 0,-144 z" /></clipPath><clipPath
       id="clipPath3565"
       clipPathUnits="userSpaceOnUse"><path
         id="path3567"
         d="m 0,396 144,0 0,144 -144,0 0,-144 z" /></clipPath><clipPath
       id="clipPath3617"
       clipPathUnits="userSpaceOnUse"><path
         id="path3619"
         d="M 0,540 720,540 720,0 0,0 0,540 Z" /></clipPath><clipPath
       id="clipPath3625"
       clipPathUnits="userSpaceOnUse"><path
         id="path3627"
         d="M 3.05176e-5,540 720,540 720,0 3.05176e-5,0 l 0,540 z" /></clipPath></defs><path
     inkscape:connector-curvature="0"
     d="m 0,720 959.99998,0 0,-719.999982 L 0,1.8e-5 0,720 Z"
     style="fill:#ffffff;fill-opacity:1;fill-rule:nonzero;stroke:none"
     id="path3403" /><g
     clip-path="url(#clipPath3409)"
     id="g3407"
     transform="matrix(1.3333333,0,0,-1.3333333,0,720)"><g
       id="g3413"><g
         id="g3415" /><g
         id="g3421"><g
           style="opacity:0.39999402"
           id="g3423"
           clip-path="url(#clipPath3417)"><g
             id="g3425"
             transform="translate(720,129.9761)"><path
               id="path3427"
               style="fill:#dcdcdc;fill-opacity:1;fill-rule:nonzero;stroke:none"
               d="m 0,0 0,30.024 -160,-160 30.024,0 L 0,0 Z"
               inkscape:connector-curvature="0" /></g></g></g></g></g><g
     clip-path="url(#clipPath3433)"
     id="g3431"
     transform="matrix(1.3333333,0,0,-1.3333333,0,720)"><g
       transform="translate(-9.1168,416.2329)"
       id="g3437"><path
         id="path3439"
         style="fill:none;stroke:#dcdcdc;stroke-width:0.75;stroke-linecap:butt;stroke-linejoin:miter;stroke-miterlimit:10;stroke-dasharray:none;stroke-opacity:1"
         d="M 0,0 -0.003,21.276 21.275,21.275"
         inkscape:connector-curvature="0" /></g><g
       transform="translate(-5.5709,419.7788)"
       id="g3441"><path
         id="path3443"
         style="fill:none;stroke:#dcdcdc;stroke-width:0.75;stroke-linecap:butt;stroke-linejoin:miter;stroke-miterlimit:10;stroke-dasharray:none;stroke-opacity:1"
         d="m 0,0 -0.002,14.183 14.185,0"
         inkscape:connector-curvature="0" /></g><g
       transform="translate(-2.0253,423.3245)"
       id="g3445"><path
         id="path3447"
         style="fill:none;stroke:#dcdcdc;stroke-width:0.75;stroke-linecap:butt;stroke-linejoin:miter;stroke-miterlimit:10;stroke-dasharray:none;stroke-opacity:1"
         d="M 0,0 -0.001,7.092 7.091,7.091"
         inkscape:connector-curvature="0" /></g></g><path
     id="path3451"
     style="fill:none;stroke:#dcdcdc;stroke-width:1;stroke-linecap:butt;stroke-linejoin:miter;stroke-miterlimit:10;stroke-dasharray:none;stroke-opacity:1"
     d="m 91.851464,61.015483 -28.366666,-0.0027 0,28.369333"
     inkscape:connector-curvature="0" /><path
     id="path3455"
     style="fill:none;stroke:#dcdcdc;stroke-width:1;stroke-linecap:butt;stroke-linejoin:miter;stroke-miterlimit:10;stroke-dasharray:none;stroke-opacity:1"
     d="m 87.124264,65.742683 -18.912,-0.0027 0.0013,18.913333"
     inkscape:connector-curvature="0" /><path
     id="path3459"
     style="fill:none;stroke:#dcdcdc;stroke-width:1;stroke-linecap:butt;stroke-linejoin:miter;stroke-miterlimit:10;stroke-dasharray:none;stroke-opacity:1"
     d="m 82.396665,70.470283 -9.454666,-0.0013 0,9.455999"
     inkscape:connector-curvature="0" /><path
     id="path3463"
     style="fill:none;stroke:#dcdcdc;stroke-width:1;stroke-linecap:butt;stroke-linejoin:miter;stroke-miterlimit:10;stroke-dasharray:none;stroke-opacity:1"
     d="m 25.660933,51.55695 28.366666,0 -0.0013,-28.365333"
     inkscape:connector-curvature="0" /><path
     id="path3467"
     style="fill:none;stroke:#dcdcdc;stroke-width:1;stroke-linecap:butt;stroke-linejoin:miter;stroke-miterlimit:10;stroke-dasharray:none;stroke-opacity:1"
     d="m 30.389199,46.82935 18.913333,0 -0.0027,-18.912"
     inkscape:connector-curvature="0" /><path
     id="path3471"
     style="fill:none;stroke:#dcdcdc;stroke-width:1;stroke-linecap:butt;stroke-linejoin:miter;stroke-miterlimit:10;stroke-dasharray:none;stroke-opacity:1"
     d="m 35.117066,42.101484 9.456,0 -0.0013,-9.456"
     inkscape:connector-curvature="0" /><g
     clip-path="url(#clipPath3477)"
     id="g3475"
     transform="matrix(1.3333333,0,0,-1.3333333,0,720)"><g
       transform="translate(12.156,465.8745)"
       id="g3481"><path
         id="path3483"
         style="fill:none;stroke:#dcdcdc;stroke-width:0.75;stroke-linecap:butt;stroke-linejoin:miter;stroke-miterlimit:10;stroke-dasharray:none;stroke-opacity:1"
         d="m 0,0 0.001,-21.275 -21.275,0 L -21.275,0 0,0 Z"
         inkscape:connector-curvature="0" /></g><g
       transform="translate(-5.5726,462.3285)"
       id="g3485"><path
         id="path3487"
         style="fill:none;stroke:#dcdcdc;stroke-width:0.75;stroke-linecap:butt;stroke-linejoin:miter;stroke-miterlimit:10;stroke-dasharray:none;stroke-opacity:1"
         d="m 0,0 14.183,0 0,-14.183 L 0,-14.183 0,0 Z"
         inkscape:connector-curvature="0" /></g><g
       transform="translate(-2.0276,458.7835)"
       id="g3489"><path
         id="path3491"
         style="fill:none;stroke:#dcdcdc;stroke-width:0.75;stroke-linecap:butt;stroke-linejoin:miter;stroke-miterlimit:10;stroke-dasharray:none;stroke-opacity:1"
         d="M 0,0 7.091,-0.002 7.092,-7.092 0.002,-7.091 0,0 Z"
         inkscape:connector-curvature="0" /></g></g><path
     id="path3495"
     style="fill:none;stroke:#dcdcdc;stroke-width:1;stroke-linecap:butt;stroke-linejoin:miter;stroke-miterlimit:10;stroke-dasharray:none;stroke-opacity:1"
     d="m 54.030399,89.379482 -0.0013,-28.365333 -28.366666,-0.0013 0,28.366666 28.367999,0 z"
     inkscape:connector-curvature="0" /><path
     id="path3499"
     style="fill:none;stroke:#dcdcdc;stroke-width:1;stroke-linecap:butt;stroke-linejoin:miter;stroke-miterlimit:10;stroke-dasharray:none;stroke-opacity:1"
     d="m 49.302132,84.651349 -0.0013,-18.910666 -18.908,0 -0.0027,18.910666 18.912,0 z"
     inkscape:connector-curvature="0" /><path
     id="path3503"
     style="fill:none;stroke:#dcdcdc;stroke-width:1;stroke-linecap:butt;stroke-linejoin:miter;stroke-miterlimit:10;stroke-dasharray:none;stroke-opacity:1"
     d="m 44.573466,79.922683 0,-9.453333 -9.456,-0.0027 0,9.457333 9.456,-0.0013 z"
     inkscape:connector-curvature="0" /><path
     id="path3507"
     style="fill:none;stroke:#dcdcdc;stroke-width:1;stroke-linecap:butt;stroke-linejoin:miter;stroke-miterlimit:10;stroke-dasharray:none;stroke-opacity:1"
     d="m 54.030665,98.836282 -28.367999,-0.004 0.0013,28.370668"
     inkscape:connector-curvature="0" /><path
     id="path3511"
     style="fill:none;stroke:#dcdcdc;stroke-width:1;stroke-linecap:butt;stroke-linejoin:miter;stroke-miterlimit:10;stroke-dasharray:none;stroke-opacity:1"
     d="m 49.302799,103.56415 -18.910666,-0.003 0,18.91334"
     inkscape:connector-curvature="0" /><path
     id="path3515"
     style="fill:none;stroke:#dcdcdc;stroke-width:1;stroke-linecap:butt;stroke-linejoin:miter;stroke-miterlimit:10;stroke-dasharray:none;stroke-opacity:1"
     d="m 44.575332,108.29162 -9.456,-10e-4 0.0013,9.456"
     inkscape:connector-curvature="0" /><g
     clip-path="url(#clipPath3521)"
     id="g3519"
     transform="matrix(1.3333333,0,0,-1.3333333,0,720)"><g
       transform="translate(-9.1201,472.966)"
       id="g3525"><path
         id="path3527"
         style="fill:none;stroke:#dcdcdc;stroke-width:0.75;stroke-linecap:butt;stroke-linejoin:miter;stroke-miterlimit:10;stroke-dasharray:none;stroke-opacity:1"
         d="M 0,0 21.276,0 21.275,21.275"
         inkscape:connector-curvature="0" /></g><g
       transform="translate(-5.574,476.5121)"
       id="g3529"><path
         id="path3531"
         style="fill:none;stroke:#dcdcdc;stroke-width:0.75;stroke-linecap:butt;stroke-linejoin:miter;stroke-miterlimit:10;stroke-dasharray:none;stroke-opacity:1"
         d="M 0,0 14.184,-0.001 14.183,14.183"
         inkscape:connector-curvature="0" /></g><g
       transform="translate(-2.0285,480.058)"
       id="g3533"><path
         id="path3535"
         style="fill:none;stroke:#dcdcdc;stroke-width:0.75;stroke-linecap:butt;stroke-linejoin:miter;stroke-miterlimit:10;stroke-dasharray:none;stroke-opacity:1"
         d="M 0,0 7.093,0 7.092,7.092"
         inkscape:connector-curvature="0" /></g></g><path
     id="path3539"
     style="fill:none;stroke:#dcdcdc;stroke-width:1;stroke-linecap:butt;stroke-linejoin:miter;stroke-miterlimit:10;stroke-dasharray:none;stroke-opacity:1"
     d="m 63.485465,23.190017 28.366666,0 0,28.367999 -28.367999,0 0,-28.366666 0.0013,-0.0013 z"
     inkscape:connector-curvature="0" /><path
     id="path3543"
     style="fill:none;stroke:#dcdcdc;stroke-width:1;stroke-linecap:butt;stroke-linejoin:miter;stroke-miterlimit:10;stroke-dasharray:none;stroke-opacity:1"
     d="m 68.213332,27.918551 18.910666,-0.0013 0,18.911999 -18.911999,0.0013 0.0013,-18.912 z"
     inkscape:connector-curvature="0" /><path
     id="path3547"
     style="fill:none;stroke:#dcdcdc;stroke-width:1;stroke-linecap:butt;stroke-linejoin:miter;stroke-miterlimit:10;stroke-dasharray:none;stroke-opacity:1"
     d="m 72.939998,32.645084 9.458666,0 -0.0027,9.456 -9.457333,0.0027 0.0013,-9.458666 z"
     inkscape:connector-curvature="0" /><path
     id="path3551"
     style="fill:none;stroke:#dcdcdc;stroke-width:1;stroke-linecap:butt;stroke-linejoin:miter;stroke-miterlimit:10;stroke-dasharray:none;stroke-opacity:1"
     d="m 101.30973,51.557217 -0.003,-28.366666 28.36934,0"
     inkscape:connector-curvature="0" /><path
     id="path3555"
     style="fill:none;stroke:#dcdcdc;stroke-width:1;stroke-linecap:butt;stroke-linejoin:miter;stroke-miterlimit:10;stroke-dasharray:none;stroke-opacity:1"
     d="m 106.03693,46.830017 -0.003,-18.912 18.91334,0.0013"
     inkscape:connector-curvature="0" /><path
     id="path3559"
     style="fill:none;stroke:#dcdcdc;stroke-width:1;stroke-linecap:butt;stroke-linejoin:miter;stroke-miterlimit:10;stroke-dasharray:none;stroke-opacity:1"
     d="m 110.76453,42.102417 -10e-4,-9.454666 9.456,0"
     inkscape:connector-curvature="0" /><g
     clip-path="url(#clipPath3565)"
     id="g3563"
     transform="matrix(1.3333333,0,0,-1.3333333,0,720)"><g
       transform="translate(68.8884,550.975)"
       id="g3569"><path
         id="path3571"
         style="fill:none;stroke:#dcdcdc;stroke-width:0.75;stroke-linecap:butt;stroke-linejoin:miter;stroke-miterlimit:10;stroke-dasharray:none;stroke-opacity:1"
         d="m 0,0 0,-21.275 -21.274,10e-4"
         inkscape:connector-curvature="0" /></g><g
       transform="translate(65.3427,547.4288)"
       id="g3573"><path
         id="path3575"
         style="fill:none;stroke:#dcdcdc;stroke-width:0.75;stroke-linecap:butt;stroke-linejoin:miter;stroke-miterlimit:10;stroke-dasharray:none;stroke-opacity:1"
         d="m 0,0 0,-14.185 -14.184,0.002"
         inkscape:connector-curvature="0" /></g><g
       transform="translate(61.7968,543.8829)"
       id="g3577"><path
         id="path3579"
         style="fill:none;stroke:#dcdcdc;stroke-width:0.75;stroke-linecap:butt;stroke-linejoin:miter;stroke-miterlimit:10;stroke-dasharray:none;stroke-opacity:1"
         d="m 0,0 0,-7.092 -7.092,10e-4"
         inkscape:connector-curvature="0" /></g><g
       transform="translate(-69.3974,412.6891)"
       id="g3581"><path
         id="path3583"
         style="fill:none;stroke:#dcdcdc;stroke-width:0.75;stroke-linecap:butt;stroke-linejoin:miter;stroke-miterlimit:10;stroke-dasharray:none;stroke-opacity:1"
         d="m 0,0 56.734,-0.002 -0.002,56.734 56.735,-0.002 -0.002,56.735 56.734,-0.003 -0.002,56.735 56.734,-0.002 -0.002,56.735 56.735,-0.003 -0.003,56.735 56.735,-0.003 -0.002,56.735 56.735,-0.002 -0.003,56.734 56.735,-0.002 -0.003,56.735"
         inkscape:connector-curvature="0" /></g><g
       transform="translate(-41.0292,384.3205)"
       id="g3585"><path
         id="path3587"
         style="fill:none;stroke:#dcdcdc;stroke-width:0.75;stroke-linecap:butt;stroke-linejoin:miter;stroke-miterlimit:10;stroke-dasharray:none;stroke-opacity:1"
         d="m 0,0 -0.002,56.734 56.735,-0.001 -0.003,56.734 56.735,-0.002 -0.003,56.734 56.735,-0.001 -0.002,56.734 56.734,-0.003 -0.002,56.735 56.735,-0.002 -0.002,56.735 56.734,-0.003 -0.002,56.735 56.734,-0.003 -0.002,56.735 56.735,-0.002"
         inkscape:connector-curvature="0" /></g><g
       transform="translate(97.2554,529.698)"
       id="g3589"><path
         id="path3591"
         style="fill:none;stroke:#dcdcdc;stroke-width:0.75;stroke-linecap:butt;stroke-linejoin:miter;stroke-miterlimit:10;stroke-dasharray:none;stroke-opacity:1"
         d="M 0,0 -21.274,0.001 -21.275,21.276 0,21.276 0,0 Z"
         inkscape:connector-curvature="0" /></g><g
       transform="translate(93.7092,533.2441)"
       id="g3593"><path
         id="path3595"
         style="fill:none;stroke:#dcdcdc;stroke-width:0.75;stroke-linecap:butt;stroke-linejoin:miter;stroke-miterlimit:10;stroke-dasharray:none;stroke-opacity:1"
         d="m 0,0 -14.183,0.001 0,14.181 L 0,14.184 0,0 Z"
         inkscape:connector-curvature="0" /></g><g
       transform="translate(90.1627,536.7906)"
       id="g3597"><path
         id="path3599"
         style="fill:none;stroke:#dcdcdc;stroke-width:0.75;stroke-linecap:butt;stroke-linejoin:miter;stroke-miterlimit:10;stroke-dasharray:none;stroke-opacity:1"
         d="m 0,0 -7.09,0 -0.002,7.092 7.093,0 L 0,0 Z"
         inkscape:connector-curvature="0" /></g><g
       transform="translate(104.3479,529.6978)"
       id="g3601"><path
         id="path3603"
         style="fill:none;stroke:#dcdcdc;stroke-width:0.75;stroke-linecap:butt;stroke-linejoin:miter;stroke-miterlimit:10;stroke-dasharray:none;stroke-opacity:1"
         d="M 0,0 -0.003,21.276 21.275,21.275"
         inkscape:connector-curvature="0" /></g><g
       transform="translate(107.8938,533.2437)"
       id="g3605"><path
         id="path3607"
         style="fill:none;stroke:#dcdcdc;stroke-width:0.75;stroke-linecap:butt;stroke-linejoin:miter;stroke-miterlimit:10;stroke-dasharray:none;stroke-opacity:1"
         d="m 0,0 -0.002,14.183 14.185,0"
         inkscape:connector-curvature="0" /></g><g
       transform="translate(111.4395,536.7893)"
       id="g3609"><path
         id="path3611"
         style="fill:none;stroke:#dcdcdc;stroke-width:0.75;stroke-linecap:butt;stroke-linejoin:miter;stroke-miterlimit:10;stroke-dasharray:none;stroke-opacity:1"
         d="M 0,0 -0.001,7.092 7.091,7.091"
         inkscape:connector-curvature="0" /></g></g></svg>